<mxfile host="Electron" modified="2024-07-26T19:07:47.620Z" agent="Mozilla/5.0 (Windows NT 10.0; Win64; x64) AppleWebKit/537.36 (KHTML, like Gecko) draw.io/24.6.1 Chrome/124.0.6367.207 Electron/30.0.6 Safari/537.36" etag="_2B2C5VfNPOMtLYgdTh3" version="24.6.1" type="device">
  <diagram name="Page-10" id="ugelxSmDcTfMPzR52Lg7">
    <mxGraphModel dx="1500" dy="899" grid="1" gridSize="25" guides="1" tooltips="1" connect="1" arrows="1" fold="1" page="1" pageScale="1" pageWidth="850" pageHeight="1100" background="#ffffff" math="0" shadow="0">
      <root>
        <mxCell id="1OhEuckv5gaVaAqSTtKQ-0" />
        <mxCell id="1OhEuckv5gaVaAqSTtKQ-1" parent="1OhEuckv5gaVaAqSTtKQ-0" />
        <mxCell id="yvTaVvBSA53Y7MEPA7VB-0" value="Enable/Disable Workbenches: Edit&amp;nbsp;→ Preferences&amp;nbsp;→ Workbenches" style="rounded=0;whiteSpace=wrap;html=1;fontSize=18;align=center;spacingLeft=0;fillColor=#999999;fontColor=#000000;strokeColor=#333333;spacingRight=0;" vertex="1" parent="1OhEuckv5gaVaAqSTtKQ-1">
          <mxGeometry x="50" y="125" width="750" height="50" as="geometry" />
        </mxCell>
        <mxCell id="Mc7t_sFdHFR77Azuzs-Q-0" value="Mechanical" style="swimlane;dropTarget=0;collapsible=0;fillColor=#FF6666;swimlaneFillColor=#FFCCCC;fontColor=#FFFFFF;startSize=25;fontSize=20;spacingBottom=6;strokeColor=none;fontFamily=Helvetica;" parent="1OhEuckv5gaVaAqSTtKQ-1" vertex="1">
          <mxGeometry x="50" y="225" width="350" height="650" as="geometry" />
        </mxCell>
        <mxCell id="1OhEuckv5gaVaAqSTtKQ-25" value="Version 1.2 | Updated for FreeCAD 0.21.2" style="text;html=1;strokeColor=none;fillColor=none;align=right;verticalAlign=middle;whiteSpace=wrap;rounded=0;sketch=0;fontColor=#000000;fontFamily=Helvetica;fontSize=14;" parent="1OhEuckv5gaVaAqSTtKQ-1" vertex="1">
          <mxGeometry x="50" y="1050" width="750" height="25" as="geometry" />
        </mxCell>
        <mxCell id="Mc7t_sFdHFR77Azuzs-Q-1" value="Architectural" style="swimlane;dropTarget=0;collapsible=0;fillColor=#CCCCCC;swimlaneFillColor=#E6E6E6;fontColor=#000000;fontSize=20;strokeColor=none;fontFamily=Helvetica;" parent="1OhEuckv5gaVaAqSTtKQ-1" vertex="1">
          <mxGeometry x="50" y="900" width="350" height="125" as="geometry" />
        </mxCell>
        <mxCell id="VfpnOmRLOey2cc1eTp0L-0" value="Computer Graphics" style="swimlane;dropTarget=0;collapsible=0;fillColor=#66B2FF;swimlaneFillColor=#CCE5FF;fontColor=#FFFFFF;fontSize=20;strokeColor=none;fontFamily=Helvetica;" parent="1OhEuckv5gaVaAqSTtKQ-1" vertex="1">
          <mxGeometry x="450" y="225" width="350" height="300" as="geometry" />
        </mxCell>
        <mxCell id="VfpnOmRLOey2cc1eTp0L-1" value="Miscellaneous" style="swimlane;dropTarget=0;collapsible=0;fillColor=#66FF66;swimlaneFillColor=#CCFFCC;fontColor=#000000;fontSize=20;strokeColor=none;fontFamily=Helvetica;" parent="1OhEuckv5gaVaAqSTtKQ-1" vertex="1">
          <mxGeometry x="450" y="550" width="350" height="475" as="geometry" />
        </mxCell>
        <mxCell id="kf9fiRktdtIZsIzcI6aB-11" value="Arch" style="shape=image;html=1;verticalLabelPosition=middle;verticalAlign=middle;imageAspect=1;aspect=fixed;image=https://wiki.freecadweb.org/images/9/99/Workbench_Arch.svg;fontColor=#1D3557;fontStyle=0;fillColor=#A8DADC;strokeColor=#457B9D;labelPosition=right;align=left;spacingLeft=20;fontSize=20;fontFamily=Helvetica;" parent="1OhEuckv5gaVaAqSTtKQ-1" vertex="1">
          <mxGeometry x="75" y="942.5" width="40" height="40" as="geometry" />
        </mxCell>
        <mxCell id="Q0KDYj9n9GIcO3wJ9_5B-0" value="&lt;span style=&quot;font-weight: normal; font-size: 40px;&quot;&gt;&lt;font style=&quot;font-size: 40px;&quot;&gt;&lt;font style=&quot;font-size: 40px;&quot;&gt;FreeCAD Cheat Sheet:&lt;/font&gt; Workbenches&lt;/font&gt;&lt;/span&gt;" style="text;strokeColor=none;fillColor=#343a40;html=1;fontSize=24;fontStyle=1;verticalAlign=middle;align=left;fontFamily=Helvetica;spacingLeft=40;fontColor=#FFFFFF;" parent="1OhEuckv5gaVaAqSTtKQ-1" vertex="1">
          <mxGeometry width="850" height="100" as="geometry" />
        </mxCell>
        <mxCell id="kf9fiRktdtIZsIzcI6aB-23" value="Web" style="shape=image;html=1;verticalLabelPosition=middle;verticalAlign=middle;imageAspect=1;aspect=fixed;image=https://wiki.freecadweb.org/images/3/3e/Workbench_Web.svg;fontColor=#1D3557;fontStyle=0;fillColor=#A8DADC;strokeColor=#457B9D;labelPosition=right;align=left;spacingLeft=20;fontSize=20;fontFamily=Helvetica;" parent="1OhEuckv5gaVaAqSTtKQ-1" vertex="1">
          <mxGeometry x="475" y="900" width="40" height="40" as="geometry" />
        </mxCell>
        <mxCell id="kf9fiRktdtIZsIzcI6aB-18" value="&amp;lt;none&amp;gt;" style="shape=image;html=1;verticalLabelPosition=middle;verticalAlign=middle;imageAspect=1;aspect=fixed;image=https://camo.githubusercontent.com/42707761ddcdc27dd522db8949216f67238216261afc6220597c1b9361cf1ea9/68747470733a2f2f7777772e667265656361647765622e6f72672f696d616765732f6c6f676f2e706e67;fontColor=#1D3557;fontStyle=0;fillColor=#A8DADC;strokeColor=#457B9D;labelPosition=right;align=left;spacingLeft=20;fontSize=20;fontFamily=Helvetica;" parent="1OhEuckv5gaVaAqSTtKQ-1" vertex="1">
          <mxGeometry x="475" y="660" width="40" height="40" as="geometry" />
        </mxCell>
        <mxCell id="kf9fiRktdtIZsIzcI6aB-19" value="Inspection" style="shape=image;html=1;verticalLabelPosition=middle;verticalAlign=middle;imageAspect=1;aspect=fixed;image=https://wiki.freecadweb.org/images/f/f8/Workbench_Inspection.svg;fontColor=#1D3557;fontStyle=0;fillColor=#A8DADC;strokeColor=#457B9D;labelPosition=right;align=left;spacingLeft=20;fontSize=20;fontFamily=Helvetica;" parent="1OhEuckv5gaVaAqSTtKQ-1" vertex="1">
          <mxGeometry x="475" y="600" width="40" height="40" as="geometry" />
        </mxCell>
        <mxCell id="kf9fiRktdtIZsIzcI6aB-20" value="Spreadsheet" style="shape=image;html=1;verticalLabelPosition=middle;verticalAlign=middle;imageAspect=1;aspect=fixed;image=https://wiki.freecadweb.org/images/b/be/Workbench_Spreadsheet.svg;fontColor=#1D3557;fontStyle=0;fillColor=#A8DADC;strokeColor=#457B9D;labelPosition=right;align=left;spacingLeft=20;fontSize=20;fontFamily=Helvetica;" parent="1OhEuckv5gaVaAqSTtKQ-1" vertex="1">
          <mxGeometry x="475" y="720" width="40" height="40" as="geometry" />
        </mxCell>
        <mxCell id="kf9fiRktdtIZsIzcI6aB-21" value="Test framework" style="shape=image;html=1;verticalLabelPosition=middle;verticalAlign=middle;imageAspect=1;aspect=fixed;image=https://wiki.freecadweb.org/images/b/bf/Workbench_Test.svg;fontColor=#1D3557;fontStyle=0;fillColor=#A8DADC;strokeColor=#457B9D;labelPosition=right;align=left;spacingLeft=20;fontSize=20;fontFamily=Helvetica;" parent="1OhEuckv5gaVaAqSTtKQ-1" vertex="1">
          <mxGeometry x="475" y="840" width="40" height="40" as="geometry" />
        </mxCell>
        <mxCell id="kf9fiRktdtIZsIzcI6aB-22" value="Start" style="shape=image;html=1;verticalLabelPosition=middle;verticalAlign=middle;imageAspect=1;aspect=fixed;image=https://wiki.freecadweb.org/images/e/eb/Workbench_Start.svg;fontColor=#1D3557;fontStyle=0;fillColor=#A8DADC;strokeColor=#457B9D;labelPosition=right;align=left;spacingLeft=20;fontSize=20;fontFamily=Helvetica;" parent="1OhEuckv5gaVaAqSTtKQ-1" vertex="1">
          <mxGeometry x="475" y="780" width="40" height="40" as="geometry" />
        </mxCell>
        <mxCell id="kf9fiRktdtIZsIzcI6aB-4" value="Part Design" style="shape=image;html=1;verticalLabelPosition=middle;verticalAlign=middle;imageAspect=1;aspect=fixed;image=https://wiki.freecadweb.org/images/3/39/Workbench_PartDesign.svg;fontColor=#1D3557;fontStyle=0;fillColor=#A8DADC;strokeColor=#457B9D;labelPosition=right;align=left;spacingLeft=20;fontSize=20;fontFamily=Helvetica;" parent="1OhEuckv5gaVaAqSTtKQ-1" vertex="1">
          <mxGeometry x="75" y="478" width="40" height="40" as="geometry" />
        </mxCell>
        <mxCell id="kf9fiRktdtIZsIzcI6aB-5" value="Part" style="shape=image;html=1;verticalLabelPosition=middle;verticalAlign=middle;imageAspect=1;aspect=fixed;image=https://wiki.freecadweb.org/images/0/04/Workbench_Part.svg;fontColor=#1D3557;fontStyle=0;fillColor=#A8DADC;strokeColor=#457B9D;labelPosition=right;align=left;spacingLeft=20;fontSize=20;fontFamily=Helvetica;" parent="1OhEuckv5gaVaAqSTtKQ-1" vertex="1">
          <mxGeometry x="75" y="545" width="40" height="40" as="geometry" />
        </mxCell>
        <mxCell id="kf9fiRktdtIZsIzcI6aB-6" value="Path" style="shape=image;html=1;verticalLabelPosition=middle;verticalAlign=middle;imageAspect=1;aspect=fixed;image=https://wiki.freecadweb.org/images/8/88/Workbench_Path.svg;fontColor=#1D3557;fontStyle=0;fillColor=#A8DADC;strokeColor=#457B9D;labelPosition=right;align=left;spacingLeft=20;fontSize=20;fontFamily=Helvetica;" parent="1OhEuckv5gaVaAqSTtKQ-1" vertex="1">
          <mxGeometry x="75" y="613" width="40" height="40" as="geometry" />
        </mxCell>
        <mxCell id="kf9fiRktdtIZsIzcI6aB-7" value="Reverse Engineering" style="shape=image;html=1;verticalLabelPosition=middle;verticalAlign=middle;imageAspect=1;aspect=fixed;image=https://wiki.freecadweb.org/images/8/83/Workbench_Reverse_Engineering.svg;fontColor=#1D3557;fontStyle=0;fillColor=#A8DADC;strokeColor=#457B9D;labelPosition=right;align=left;spacingLeft=20;fontSize=20;fontFamily=Helvetica;" parent="1OhEuckv5gaVaAqSTtKQ-1" vertex="1">
          <mxGeometry x="75" y="680" width="40" height="40" as="geometry" />
        </mxCell>
        <mxCell id="kf9fiRktdtIZsIzcI6aB-9" value="Sketcher" style="shape=image;html=1;verticalLabelPosition=middle;verticalAlign=middle;imageAspect=1;aspect=fixed;image=https://wiki.freecadweb.org/images/9/91/Workbench_Sketcher.svg;fontColor=#1D3557;fontStyle=0;fillColor=#A8DADC;strokeColor=#457B9D;labelPosition=right;align=left;spacingLeft=20;fontSize=20;fontFamily=Helvetica;" parent="1OhEuckv5gaVaAqSTtKQ-1" vertex="1">
          <mxGeometry x="75" y="748" width="40" height="40" as="geometry" />
        </mxCell>
        <mxCell id="kf9fiRktdtIZsIzcI6aB-10" value="TechDraw" style="shape=image;html=1;verticalLabelPosition=middle;verticalAlign=middle;imageAspect=1;aspect=fixed;image=https://wiki.freecadweb.org/images/b/b6/Workbench_TechDraw.svg;fontColor=#1D3557;fontStyle=0;fillColor=#A8DADC;strokeColor=#457B9D;labelPosition=right;align=left;spacingLeft=20;fontSize=20;fontFamily=Helvetica;" parent="1OhEuckv5gaVaAqSTtKQ-1" vertex="1">
          <mxGeometry x="75" y="815" width="40" height="40" as="geometry" />
        </mxCell>
        <mxCell id="9MX4A8CP7_2Kbi8UmV6y-0" value="Draft" style="shape=image;html=1;verticalLabelPosition=middle;verticalAlign=middle;imageAspect=1;aspect=fixed;image=https://wiki.freecadweb.org/images/9/91/Workbench_Draft.svg;fontColor=#1D3557;fontStyle=0;fillColor=#A8DADC;strokeColor=#457B9D;labelPosition=right;align=left;spacingLeft=20;fontSize=20;fontFamily=Helvetica;" parent="1OhEuckv5gaVaAqSTtKQ-1" vertex="1">
          <mxGeometry x="75" y="275" width="40" height="40" as="geometry" />
        </mxCell>
        <mxCell id="9MX4A8CP7_2Kbi8UmV6y-2" value="FEM" style="shape=image;html=1;verticalLabelPosition=middle;verticalAlign=middle;imageAspect=1;aspect=fixed;image=https://wiki.freecadweb.org/images/8/87/Workbench_FEM.svg;fontColor=#1D3557;fontStyle=0;fillColor=#A8DADC;strokeColor=#457B9D;labelPosition=right;align=left;spacingLeft=20;fontSize=20;fontFamily=Helvetica;" parent="1OhEuckv5gaVaAqSTtKQ-1" vertex="1">
          <mxGeometry x="75" y="343" width="40" height="40" as="geometry" />
        </mxCell>
        <mxCell id="9MX4A8CP7_2Kbi8UmV6y-3" value="OpenSCAD" style="shape=image;html=1;verticalLabelPosition=middle;verticalAlign=middle;imageAspect=1;aspect=fixed;image=https://wiki.freecadweb.org/images/4/4e/Workbench_OpenSCAD.svg;fontColor=#1D3557;fontStyle=0;fillColor=#A8DADC;strokeColor=#457B9D;labelPosition=right;align=left;spacingLeft=20;fontSize=20;fontFamily=Helvetica;" parent="1OhEuckv5gaVaAqSTtKQ-1" vertex="1">
          <mxGeometry x="75" y="410" width="40" height="40" as="geometry" />
        </mxCell>
        <mxCell id="kf9fiRktdtIZsIzcI6aB-12" value="Image" style="shape=image;html=1;verticalLabelPosition=middle;verticalAlign=middle;imageAspect=1;aspect=fixed;image=https://wiki.freecadweb.org/images/d/de/Workbench_Image.svg;fontColor=#1D3557;fontStyle=0;fillColor=#A8DADC;strokeColor=#457B9D;labelPosition=right;align=left;spacingLeft=20;fontSize=20;fontFamily=Helvetica;" parent="1OhEuckv5gaVaAqSTtKQ-1" vertex="1">
          <mxGeometry x="475" y="275" width="40" height="40" as="geometry" />
        </mxCell>
        <mxCell id="kf9fiRktdtIZsIzcI6aB-13" value="Mesh Design" style="shape=image;html=1;verticalLabelPosition=middle;verticalAlign=middle;imageAspect=1;aspect=fixed;image=https://wiki.freecadweb.org/images/8/84/Workbench_Mesh.svg;fontColor=#1D3557;fontStyle=0;fillColor=#A8DADC;strokeColor=#457B9D;labelPosition=right;align=left;spacingLeft=20;fontSize=20;fontFamily=Helvetica;" parent="1OhEuckv5gaVaAqSTtKQ-1" vertex="1">
          <mxGeometry x="475" y="333" width="40" height="40" as="geometry" />
        </mxCell>
        <mxCell id="kf9fiRktdtIZsIzcI6aB-14" value="Points" style="shape=image;html=1;verticalLabelPosition=middle;verticalAlign=middle;imageAspect=1;aspect=fixed;image=https://wiki.freecadweb.org/images/6/6c/Workbench_Points.svg;fontColor=#1D3557;fontStyle=0;fillColor=#A8DADC;strokeColor=#457B9D;labelPosition=right;align=left;spacingLeft=20;fontSize=20;fontFamily=Helvetica;" parent="1OhEuckv5gaVaAqSTtKQ-1" vertex="1">
          <mxGeometry x="475" y="392" width="40" height="40" as="geometry" />
        </mxCell>
        <mxCell id="kf9fiRktdtIZsIzcI6aB-16" value="Surface" style="shape=image;html=1;verticalLabelPosition=middle;verticalAlign=middle;imageAspect=1;aspect=fixed;image=https://wiki.freecadweb.org/images/b/bf/Workbench_Surface.svg;fontColor=#1D3557;fontStyle=0;fillColor=#A8DADC;strokeColor=#457B9D;labelPosition=right;align=left;spacingLeft=20;fontSize=20;fontFamily=Helvetica;" parent="1OhEuckv5gaVaAqSTtKQ-1" vertex="1">
          <mxGeometry x="475" y="450" width="40" height="40" as="geometry" />
        </mxCell>
      </root>
    </mxGraphModel>
  </diagram>
</mxfile>
